<?xml version="1.0" encoding="utf-8"?>
<!-- Generator: Adobe Illustrator 15.0.2, SVG Export Plug-In . SVG Version: 6.00 Build 0)  -->
<!DOCTYPE svg PUBLIC "-//W3C//DTD SVG 1.1//EN" "http://www.w3.org/Graphics/SVG/1.1/DTD/svg11.dtd">
<svg version="1.1" id="Layer_1" xmlns="http://www.w3.org/2000/svg" xmlns:xlink="http://www.w3.org/1999/xlink" x="0px" y="0px"
	 width="384px" height="448px" viewBox="0 0 384 448" enable-background="new 0 0 384 448" xml:space="preserve">
<g>
	<line fill="none" stroke="#B35047" x1="32" y1="0" x2="32" y2="448"/>
	<line fill="none" stroke="#B35047" x1="64" y1="0" x2="64" y2="448"/>
	<line fill="none" stroke="#B35047" x1="96" y1="0" x2="96" y2="448"/>
	<line fill="none" stroke="#B35047" x1="128" y1="0" x2="128" y2="448"/>
	<line fill="none" stroke="#B35047" x1="160" y1="0" x2="160" y2="448"/>
	<line fill="none" stroke="#B35047" x1="192" y1="0" x2="192" y2="448"/>
	<line fill="none" stroke="#B35047" x1="224" y1="0" x2="224" y2="448"/>
	<line fill="none" stroke="#B35047" x1="256" y1="0" x2="256" y2="448"/>
	<line fill="none" stroke="#B35047" x1="288" y1="0" x2="288" y2="448"/>
	<line fill="none" stroke="#B35047" x1="320" y1="0" x2="320" y2="448"/>
	<line fill="none" stroke="#B35047" x1="352" y1="0" x2="352" y2="448"/>
	<line fill="none" stroke="#B35047" x1="0" y1="32" x2="384" y2="32"/>
	<line fill="none" stroke="#B35047" x1="0" y1="64" x2="384" y2="64"/>
	<line fill="none" stroke="#B35047" x1="0" y1="96" x2="384" y2="96"/>
	<line fill="none" stroke="#B35047" x1="0" y1="128" x2="384" y2="128"/>
	<line fill="none" stroke="#B35047" x1="0" y1="160" x2="384" y2="160"/>
	<line fill="none" stroke="#B35047" x1="0" y1="192" x2="384" y2="192"/>
	<line fill="none" stroke="#B35047" x1="0" y1="224" x2="384" y2="224"/>
	<line fill="none" stroke="#B35047" x1="0" y1="256" x2="384" y2="256"/>
	<line fill="none" stroke="#B35047" x1="0" y1="288" x2="384" y2="288"/>
	<line fill="none" stroke="#B35047" x1="0" y1="320" x2="384" y2="320"/>
	<line fill="none" stroke="#B35047" x1="0" y1="352" x2="384" y2="352"/>
	<line fill="none" stroke="#B35047" x1="0" y1="384" x2="384" y2="384"/>
	<line fill="none" stroke="#B35047" x1="0" y1="416" x2="384" y2="416"/>
	<rect fill="none" stroke="#B35047" width="384" height="448"/>
</g>
<g>
	<g>
		<g>
			<path d="M240.667,344c3,4.333,4.833,4,7.166,3s122.334-41.5,126-42.833s2.5-2.5,1.334-4.334S334,243.667,332,240.5
				s-3-2.5-6.167-1.5l-127.208,33.1C198.625,272.1,237.667,339.667,240.667,344z"/>
			<path d="M384,288.673v-63.598c-14.312,3.814-32.413,8.634-39.559,10.535C355.221,250.034,372.075,272.607,384,288.673z"/>
			<path d="M344.318,157.282c-1.961,0.445-45.371,8.29-48.045,8.646s-1.783,1.872-0.713,3.387l38.201,52.414
				c0,0,46.708-11.588,49.561-12.212c0.231-0.051,0.457-0.105,0.678-0.16v-6.94c-8.49-10.766-31.621-40.077-33.62-42.816
				C347.974,156.302,346.279,156.837,344.318,157.282z"/>
			<path d="M71.184,74.951c9.4-0.427,10.258,1.712,14.388,7.836L189.328,256.25l130.46-31.253
				c-7.228-10.246-40.043-56.769-43.214-61.208c-3.565-4.992,0.089-7.31,5.883-8.29s55.71-9.359,59.989-9.983
				s7.667-2.139,14.619,6.24c3.557,4.287,15.618,19.305,26.935,33.382V104c0-19.833-7.042-36.792-21.125-50.875S331.833,32,312,32
				H72c-19.833,0-36.792,7.042-50.875,21.125C13.047,61.203,7.298,70.231,3.853,80.201C27.37,78.269,64.605,75.25,71.184,74.951z"/>
			<path d="M252.433,367.346c-11.001,3.333-15.934,4.987-23.1-5.013c-5.367-7.49-34.39-59.765-48.621-85.535
				c-26.932,7.054-76.221,19.918-90.434,23.333c-13.873,3.333-19.797-4.984-22.076-10.111C66.604,286.425,25.934,198.739,0,142.476
				V344c0,19.834,7.042,36.791,21.125,50.875C35.208,408.958,52.167,416,72,416h240c19.833,0,36.792-7.042,50.875-21.125
				C376.958,380.791,384,363.834,384,344v-23.672C354.539,331.104,259.845,365.1,252.433,367.346z"/>
			<path d="M90.618,279.932c3.899-0.892,76.969-18.38,78.529-18.714s2.562-1.226,0.891-4.121s-97.4-168.134-97.4-168.134
				c-0.884-1.517-0.632-2.022-3.033-1.896c-2.141,0.113-56.307,4.946-68.848,5.994c-0.37,2.608-0.593,5.276-0.691,7.996
				c12.731,26.062,85.798,176.755,86.208,177.983C86.72,280.377,86.719,280.823,90.618,279.932z"/>
		</g>
	</g>
</g>
</svg>
