<?xml version="1.0" encoding="iso-8859-1"?>
<!-- Generator: Adobe Illustrator 23.0.1, SVG Export Plug-In . SVG Version: 6.00 Build 0)  -->
<svg version="1.1" id="Layer_1" xmlns="http://www.w3.org/2000/svg" xmlns:xlink="http://www.w3.org/1999/xlink" x="0px" y="0px"
	 viewBox="0 0 700 300" style="enable-background:new 0 0 700 300;" xml:space="preserve">
<g>
	<polygon style="fill:#FF2D20;" points="82.8,79.626 60.019,79.626 60.019,218.301 125.592,218.301 125.592,197.897 82.8,197.897 	
		"/>
	<path style="fill:#FF2D20;" d="M206.02,138.464c-2.906-4.622-7.033-8.253-12.382-10.896c-5.348-2.641-10.731-3.963-16.145-3.963
		c-7.003,0-13.407,1.288-19.217,3.863c-5.813,2.575-10.797,6.111-14.957,10.6c-4.16,4.491-7.397,9.675-9.707,15.55
		c-2.313,5.879-3.467,12.055-3.467,18.524c0,6.606,1.154,12.811,3.467,18.621c2.309,5.814,5.546,10.964,9.707,15.453
		c4.16,4.491,9.145,8.023,14.957,10.598c5.81,2.575,12.214,3.863,19.217,3.863c5.414,0,10.797-1.321,16.145-3.962
		c5.349-2.64,9.476-6.272,12.382-10.896v12.48h21.594v-92.318H206.02V138.464z M204.039,183.434
		c-1.321,3.567-3.17,6.671-5.546,9.312c-2.378,2.643-5.251,4.755-8.618,6.34c-3.368,1.585-7.102,2.377-11.194,2.377
		c-4.095,0-7.793-0.792-11.094-2.377c-3.302-1.585-6.141-3.697-8.518-6.34c-2.378-2.641-4.195-5.745-5.448-9.312
		c-1.258-3.566-1.882-7.33-1.882-11.291c0-3.963,0.624-7.727,1.882-11.293c1.253-3.566,3.07-6.668,5.448-9.311
		c2.377-2.64,5.215-4.755,8.518-6.34c3.301-1.585,6.999-2.377,11.094-2.377c4.093,0,7.826,0.792,11.194,2.377
		c3.367,1.585,6.24,3.699,8.618,6.34c2.377,2.643,4.225,5.745,5.546,9.311c1.319,3.566,1.981,7.33,1.981,11.293
		C206.02,176.104,205.358,179.868,204.039,183.434z"/>
	<path style="fill:#FF2D20;" d="M381.542,138.464c-2.906-4.622-7.033-8.253-12.382-10.896c-5.348-2.641-10.731-3.963-16.145-3.963
		c-7.003,0-13.407,1.288-19.217,3.863c-5.813,2.575-10.797,6.111-14.957,10.6c-4.16,4.491-7.397,9.675-9.707,15.55
		c-2.313,5.879-3.467,12.055-3.467,18.524c0,6.606,1.154,12.811,3.467,18.621c2.309,5.814,5.546,10.964,9.707,15.453
		c4.16,4.491,9.145,8.023,14.957,10.598c5.81,2.575,12.214,3.863,19.217,3.863c5.414,0,10.797-1.321,16.145-3.962
		c5.349-2.64,9.476-6.272,12.382-10.896v12.48h21.594v-92.318h-21.594V138.464z M379.562,183.434
		c-1.321,3.567-3.17,6.671-5.546,9.312c-2.378,2.643-5.251,4.755-8.618,6.34c-3.368,1.585-7.102,2.377-11.194,2.377
		c-4.095,0-7.793-0.792-11.094-2.377c-3.302-1.585-6.141-3.697-8.518-6.34c-2.378-2.641-4.195-5.745-5.448-9.312
		c-1.258-3.566-1.882-7.33-1.882-11.291c0-3.963,0.624-7.727,1.882-11.293c1.253-3.566,3.07-6.668,5.448-9.311
		c2.377-2.64,5.215-4.755,8.518-6.34c3.301-1.585,6.999-2.377,11.094-2.377c4.093,0,7.826,0.792,11.194,2.377
		c3.367,1.585,6.24,3.699,8.618,6.34c2.377,2.643,4.225,5.745,5.546,9.311c1.319,3.566,1.981,7.33,1.981,11.293
		C381.542,176.104,380.88,179.868,379.562,183.434z"/>
	<rect x="618.426" y="79.626" style="fill:#FF2D20;" width="21.593" height="138.675"/>
	<polygon style="fill:#FF2D20;" points="244.652,218.301 266.244,218.301 266.244,147.23 303.291,147.23 303.291,125.984 
		244.652,125.984 	"/>
	<polygon style="fill:#FF2D20;" points="489.709,125.984 462.569,196.678 435.428,125.984 413.558,125.984 449,218.301 
		476.138,218.301 511.579,125.984 	"/>
	<path style="fill:#FF2D20;" d="M558.675,123.61c-26.442,0-47.372,21.73-47.372,48.534c0,29.63,20.256,48.534,50.139,48.534
		c16.724,0,27.402-6.395,40.448-20.321l-14.588-11.287c-0.008,0.011-11.011,14.457-27.439,14.457
		c-19.095,0-27.135-15.395-27.135-23.36h71.637C608.128,149.668,588.077,123.61,558.675,123.61z M532.785,164.121
		c0.166-1.777,2.653-23.36,25.719-23.36c23.066,0,25.869,21.58,26.03,23.36H532.785z"/>
</g>
</svg>
